<?xml version="1.0" encoding="utf-8"?>
<!-- Generator: Adobe Illustrator 19.1.1, SVG Export Plug-In . SVG Version: 6.00 Build 0)  -->
<svg version="1.1" id="Layer_1" xmlns="http://www.w3.org/2000/svg" xmlns:xlink="http://www.w3.org/1999/xlink" x="0px" y="0px"
	 viewBox="0 0 80 80" style="enable-background:new 0 0 80 80;" xml:space="preserve">
<style type="text/css">
	.st0{fill:#FFFFFF;}
	.st1{fill:#F7931E;}
	.st2{fill:#709197;}
	.st3{fill:none;stroke:#709197;stroke-width:3;stroke-miterlimit:10;}
</style>
<g id="XMLID_77_">
	<g id="XMLID_284_">
		<path id="XMLID_288_" class="st0" d="M44.1,66.5c2,1,4.2,1.5,6.6,1.5c8.4,0,15.2-6.8,15.2-15.2c0-8.4-6.8-15.2-15.2-15.2
			c-2.4,0-4.6,0.5-6.6,1.5c2.8,3.8,4.5,8.5,4.5,13.7C48.6,58,47,62.7,44.1,66.5z"/>
		<path id="XMLID_287_" class="st0" d="M32.4,39.2c-2-1-4.2-1.5-6.6-1.5c-8.4,0-15.2,6.8-15.2,15.2c0,8.4,6.8,15.2,15.2,15.2
			c2.4,0,4.6-0.5,6.6-1.5c-2.8-3.8-4.5-8.5-4.5-13.7C27.9,47.8,29.6,43,32.4,39.2z"/>
		<path id="XMLID_286_" class="st1" d="M44.1,39.2c-2.3,1.1-4.4,2.9-5.8,5c1.7,2.5,2.7,5.4,2.7,8.7c0,3.2-1,6.2-2.7,8.7
			c-1.5,2.1-3.5,3.8-5.8,5c-2,1-4.2,1.5-6.6,1.5c-8.4,0-15.2-6.8-15.2-15.2c0-8.4,6.8-15.2,15.2-15.2c2.4,0,4.6,0.5,6.6,1.5
			c1.6-2.1,3.6-4,5.8-5.5c-3.6-2.3-7.8-3.7-12.4-3.7C13.2,30.1,3,40.3,3,52.9c0,12.6,10.2,22.8,22.8,22.8c4.6,0,8.9-1.4,12.4-3.7
			c2.3-1.5,4.2-3.3,5.8-5.5c2.8-3.8,4.5-8.5,4.5-13.7C48.6,47.8,47,43,44.1,39.2z"/>
		<path id="XMLID_285_" class="st1" d="M50.7,30.1c-4.6,0-8.9,1.4-12.4,3.7c-2.3,1.5-4.2,3.3-5.8,5.5c-2.8,3.8-4.5,8.5-4.5,13.7
			c0,5.1,1.7,9.8,4.5,13.7c2.3-1.1,4.4-2.9,5.8-5c-1.7-2.5-2.7-5.4-2.7-8.7c0-3.2,1-6.2,2.7-8.7c1.5-2.1,3.5-3.8,5.8-5
			c2-1,4.2-1.5,6.6-1.5c8.4,0,15.2,6.8,15.2,15.2c0,8.4-6.8,15.2-15.2,15.2c-2.4,0-4.6-0.5-6.6-1.5c-1.6,2.1-3.6,4-5.8,5.5
			c3.6,2.3,7.8,3.7,12.4,3.7c12.6,0,22.8-10.2,22.8-22.8C73.5,40.3,63.3,30.1,50.7,30.1z"/>
	</g>
	<g id="XMLID_24_">
		<g id="XMLID_30_">
			<g id="XMLID_28_">
				<path class="st2" d="M28.2,30.1l-13.9-12l7-12.1H35l7,12.1L28.2,30.1z M18.2,17.5l10,8.7l10-8.7L33.3,9H23.1L18.2,17.5z"/>
				<rect x="16" y="16" class="st2" width="24" height="3"/>
				<polygon class="st2" points="28.2,20.8 20.9,8.2 23.5,6.7 28.2,14.8 32.9,6.7 35.5,8.2 				"/>
				<rect x="27" y="18" class="st2" width="3" height="10"/>
			</g>
			<path id="XMLID_31_" class="st3" d="M28.2,12.9"/>
		</g>
		<g id="XMLID_35_">
			<path class="st2" d="M40.7,62.6l-1.2-1.8c-2-2.8-3-6.1-3-9.5c0-3.4,1-6.7,3-9.5l1.2-1.8l1.2,1.8c2,2.8,3,6.1,3,9.5
				c0,3.4-1,6.7-3,9.5L40.7,62.6z M40.7,45.6c-0.8,1.8-1.2,3.7-1.2,5.7s0.4,3.9,1.2,5.7c0.8-1.8,1.2-3.7,1.2-5.7
				C41.9,49.3,41.5,47.4,40.7,45.6z"/>
			<path class="st2" d="M53.1,67.9c-2.5,0-5-0.6-7.2-1.7l-1.6-0.8l1.1-1.5c2.8-3.7,4.2-8.1,4.2-12.8c0-4.6-1.5-9-4.2-12.8l-1.1-1.5
				l1.6-0.8c2.3-1.1,4.7-1.7,7.2-1.7c9.2,0,16.7,7.5,16.7,16.7C69.8,60.5,62.3,67.9,53.1,67.9z M48.8,64.2c1.4,0.5,2.8,0.7,4.3,0.7
				c7.5,0,13.7-6.1,13.7-13.7c0-7.5-6.1-13.7-13.7-13.7c-1.5,0-2.9,0.2-4.3,0.7c2.5,3.9,3.7,8.3,3.7,13
				C52.6,55.9,51.3,60.4,48.8,64.2z"/>
			<path class="st2" d="M28.3,67.9c-9.2,0-16.7-7.5-16.7-16.7c0-9.2,7.5-16.7,16.7-16.7c2.5,0,5,0.6,7.2,1.7l1.6,0.8l-1.1,1.5
				c-2.8,3.7-4.2,8.1-4.2,12.8c0,4.6,1.5,9.1,4.2,12.8l1.1,1.5l-1.6,0.8C33.2,67.4,30.8,67.9,28.3,67.9z M28.3,37.6
				c-7.5,0-13.7,6.1-13.7,13.7c0,7.5,6.1,13.7,13.7,13.7c1.5,0,2.9-0.2,4.3-0.7c-2.5-3.9-3.7-8.3-3.7-13c0-4.6,1.3-9.1,3.7-13
				C31.2,37.8,29.8,37.6,28.3,37.6z"/>
			<path class="st2" d="M28.3,75.6C14.9,75.6,4,64.7,4,51.3C4,37.9,14.9,27,28.3,27c4.7,0,9.3,1.4,13.3,3.9l1.9,1.3l-1.9,1.3
				c-2.1,1.4-4,3.1-5.5,5.1l-0.7,1L34.2,39c-1.9-0.9-3.9-1.4-5.9-1.4c-7.5,0-13.7,6.1-13.7,13.7c0,7.5,6.1,13.7,13.7,13.7
				c2.1,0,4.1-0.5,5.9-1.4c2.1-1,3.9-2.6,5.3-4.5c1.6-2.3,2.5-5,2.5-7.8s-0.9-5.5-2.5-7.8l-0.6-0.9l0.6-0.9c1.6-2.3,3.9-4.2,6.4-5.5
				l1.1-0.5l0.7,1c3.2,4.2,4.8,9.3,4.8,14.6s-1.7,10.3-4.8,14.6c-1.7,2.3-3.8,4.2-6.2,5.8C37.6,74.2,33,75.6,28.3,75.6z M28.3,30
				C16.5,30,7,39.5,7,51.3C7,63,16.5,72.6,28.3,72.6c4.1,0,8.2-1.2,11.6-3.4c2.1-1.4,4-3.1,5.5-5.1c2.8-3.7,4.2-8.1,4.2-12.8
				c0-4.2-1.2-8.2-3.5-11.7c-1.3,0.8-2.5,1.9-3.5,3.1c1.6,2.6,2.4,5.5,2.4,8.6c0,3.4-1,6.7-3,9.5c-1.6,2.3-3.9,4.2-6.4,5.5
				c-2.3,1.1-4.7,1.7-7.2,1.7c-9.2,0-16.7-7.5-16.7-16.7c0-9.2,7.5-16.7,16.7-16.7c2.1,0,4.2,0.4,6.1,1.2c1.1-1.3,2.2-2.4,3.5-3.5
				C35,30.8,31.7,30,28.3,30z"/>
			<path class="st2" d="M53.1,75.6c-4.7,0-9.3-1.4-13.3-3.9L38,70.4l1.9-1.3c2.1-1.4,4-3.1,5.5-5.1l0.7-1l1.1,0.5
				c1.9,0.9,3.9,1.4,5.9,1.4c7.5,0,13.7-6.1,13.7-13.7c0-7.5-6.1-13.7-13.7-13.7c-2.1,0-4.1,0.5-5.9,1.4c-2.1,1-3.9,2.6-5.3,4.5
				c-1.6,2.3-2.5,5-2.5,7.8s0.9,5.5,2.5,7.8l0.6,0.9l-0.6,0.9c-1.6,2.3-3.9,4.2-6.4,5.5l-1.1,0.5l-0.7-1c-3.2-4.2-4.8-9.3-4.8-14.6
				c0-5.3,1.7-10.3,4.8-14.6c1.7-2.3,3.8-4.2,6.2-5.8c3.9-2.6,8.5-3.9,13.2-3.9c13.4,0,24.3,10.9,24.3,24.3
				C77.4,64.7,66.5,75.6,53.1,75.6z M43.5,70.2c3,1.5,6.3,2.3,9.7,2.3c11.7,0,21.3-9.6,21.3-21.3c0-11.7-9.6-21.3-21.3-21.3
				c-4.1,0-8.2,1.2-11.6,3.4c-2.1,1.4-4,3.1-5.5,5.1c-2.8,3.7-4.2,8.1-4.2,12.8c0,4.2,1.2,8.2,3.5,11.7c1.3-0.8,2.5-1.9,3.5-3.1
				c-1.6-2.6-2.4-5.6-2.4-8.6c0-3.4,1-6.7,3-9.5c1.6-2.3,3.9-4.2,6.4-5.5c2.3-1.1,4.7-1.7,7.2-1.7c9.2,0,16.7,7.5,16.7,16.7
				c0,9.2-7.5,16.7-16.7,16.7c-2.1,0-4.2-0.4-6.1-1.2C45.9,68,44.8,69.2,43.5,70.2z"/>
		</g>
	</g>
</g>
</svg>
