<?xml version="1.0" encoding="utf-8"?>
<!-- Generator: Adobe Illustrator 19.1.1, SVG Export Plug-In . SVG Version: 6.00 Build 0)  -->
<svg version="1.1" id="Layer_1" xmlns="http://www.w3.org/2000/svg" xmlns:xlink="http://www.w3.org/1999/xlink" x="0px" y="0px"
	 viewBox="0 0 80 80" style="enable-background:new 0 0 80 80;" xml:space="preserve">
<style type="text/css">
	.st0{fill:#FEF3E9;}
	.st1{fill:#F7931E;}
	.st2{fill:#F06C9A;}
	.st3{fill:#709197;}
</style>
<g id="XMLID_95_">
	<g id="XMLID_140_">
		
			<rect id="XMLID_281_" x="21.9" y="24.1" transform="matrix(0.977 0.2133 -0.2133 0.977 6.8647 -5.6709)" class="st0" width="15.7" height="9.7"/>
		<path id="XMLID_280_" class="st1" d="M21,32l-3.7,16.8c-0.9,4.2,1.8,8.4,6,9.3c4.2,0.9,8.4-1.8,9.3-6l3.7-16.8L21,32z"/>
		
			<rect id="XMLID_270_" x="41.1" y="24.7" transform="matrix(0.988 -0.1546 0.1546 0.988 -3.9715 7.9207)" class="st0" width="15.7" height="9.7"/>
		<path id="XMLID_237_" class="st1" d="M41.9,35.5l2.7,17c0.7,4.3,4.7,7.2,9,6.5c4.3-0.7,7.2-4.7,6.5-9l-2.7-17L41.9,35.5z"/>
		<g id="XMLID_152_">
			<line id="XMLID_166_" class="st2" x1="29" y1="19.1" x2="19.2" y2="14.7"/>
			<line id="XMLID_156_" class="st2" x1="49.5" y1="19.8" x2="59.6" y2="16.1"/>
		</g>
	</g>
	<g id="XMLID_49_">
		<g id="XMLID_47_">
			
				<rect x="21.7" y="56.7" transform="matrix(0.9769 0.2136 -0.2136 0.9769 14.7098 -3.4116)" class="st3" width="2.9" height="19.3"/>
			<g id="XMLID_46_">
				<g id="XMLID_39_">
					<path class="st3" d="M39.3,35.8l-18.1-4l2.7-12.3l18.1,4L39.3,35.8z M24.6,29.7l12.5,2.7l1.4-6.6L26.1,23L24.6,29.7z"/>
					<path class="st3" d="M26.9,58.6c-0.7,0-1.3-0.1-2-0.2c-2.4-0.5-4.5-2-5.8-4.1s-1.8-4.6-1.3-7l4-18.3l18.1,4l-4,18.3
						C35,55.6,31.1,58.6,26.9,58.6z M24,32.5l-3.4,15.4c-0.4,1.7-0.1,3.4,0.9,4.8c0.9,1.4,2.3,2.4,4,2.8c3.4,0.8,6.9-1.4,7.6-4.9
						l3.4-15.4L24,32.5z"/>
				</g>
				
					<rect x="13.3" y="74.4" transform="matrix(0.977 0.2133 -0.2133 0.977 16.6563 -2.7534)" class="st3" width="15.7" height="2.9"/>
			</g>
		</g>
		<g id="XMLID_45_">
			<g id="XMLID_43_">
				<path class="st3" d="M42.6,35.9l-1.9-12.4L59,20.6L60.9,33L42.6,35.9z M44,25.9l1,6.7l12.6-2l-1-6.7L44,25.9z"/>
				<path class="st3" d="M54.2,59.3c-1.9,0-3.8-0.6-5.4-1.8c-2-1.5-3.3-3.6-3.7-6.1L42.2,33l18.3-2.9l2.9,18.5
					c0.4,2.4-0.2,4.9-1.7,6.9c-1.5,2-3.6,3.3-6.1,3.7C55.2,59.3,54.7,59.3,54.2,59.3z M45.5,35.4L47.9,51c0.3,1.7,1.2,3.2,2.5,4.2
					c1.4,1,3.1,1.4,4.8,1.2c1.7-0.3,3.2-1.2,4.2-2.5c1-1.4,1.4-3.1,1.2-4.8l-2.4-15.6L45.5,35.4z"/>
			</g>
			
				<rect x="47.3" y="65.9" transform="matrix(0.1546 0.988 -0.988 0.1546 114.6366 0.6824)" class="st3" width="19.3" height="2.9"/>
			<rect x="57" y="69" transform="matrix(0.1543 0.988 -0.988 0.1543 125.3457 7.2946)" class="st3" width="2.9" height="15.7"/>
		</g>
		<g id="XMLID_52_">
			
				<rect x="20.6" y="14.2" transform="matrix(0.9136 0.4067 -0.4067 0.9136 8.6152 -9.1957)" class="st3" width="10.7" height="2.9"/>
			<rect x="26.9" y="7" transform="matrix(0.5299 0.848 -0.848 0.5299 22.2898 -23.4023)" class="st3" width="10.7" height="2.9"/>
			
				<rect x="40.1" y="0.5" transform="matrix(0.9994 3.483227e-002 -3.483227e-002 0.9994 0.2312 -1.4437)" class="st3" width="2.9" height="10.7"/>
			
				<rect x="49.2" y="3.7" transform="matrix(0.809 0.5877 -0.5877 0.809 14.9899 -28.0427)" class="st3" width="2.9" height="10.7"/>
			
				<rect x="55" y="11.4" transform="matrix(0.3418 0.9398 -0.9398 0.3418 52.8785 -42.0304)" class="st3" width="2.9" height="10.7"/>
		</g>
	</g>
</g>
</svg>
