<?xml version="1.0" encoding="utf-8"?>
<!-- Generator: Adobe Illustrator 19.1.1, SVG Export Plug-In . SVG Version: 6.00 Build 0)  -->
<svg version="1.1" id="Layer_1" xmlns="http://www.w3.org/2000/svg" xmlns:xlink="http://www.w3.org/1999/xlink" x="0px" y="0px"
	 viewBox="0 0 80 80" style="enable-background:new 0 0 80 80;" xml:space="preserve">
<style type="text/css">
	.st0{fill:#F7931E;}
	.st1{fill:#FFFFFF;}
	.st2{fill:none;}
	.st3{fill:#709197;}
</style>
<g id="XMLID_76_">
	<g id="XMLID_295_">
		<polygon id="XMLID_302_" class="st0" points="55.7,45 39,28.4 22.4,45 22.4,78.2 55.7,78.2 		"/>
		<g id="XMLID_300_">
			<polygon id="XMLID_301_" class="st0" points="44.9,34.3 44.9,10.4 39,4.7 33.1,10.4 33.1,34.3 39,28.3 			"/>
		</g>
		<path id="XMLID_299_" class="st1" d="M39.5,58.3L39.5,58.3c-1.9,0-3.4,1.6-3.4,3.4v16.4h6.9V61.7C42.9,59.9,41.4,58.3,39.5,58.3z"
			/>
		<line id="XMLID_298_" class="st2" x1="10.6" y1="78.2" x2="67.4" y2="78.2"/>
		<path id="XMLID_297_" class="st1" d="M41.9,24.3h-5.9v-6.6c0-1.6,1.4-2.8,2.9-2.8l0,0c1.6,0,2.9,1.3,2.9,2.8V24.3z"/>
		<circle id="XMLID_296_" class="st1" cx="39.1" cy="41.5" r="2.3"/>
	</g>
	<g id="XMLID_20_">
		<path class="st3" d="M58.6,79.2H23.3V43.2l17.6-18l17.6,18V79.2z M26.3,76.2h29.4V44.4L41,29.4l-14.7,15V76.2z"/>
		<polygon class="st3" points="62.9,51.4 40.9,29.4 18.7,51.4 16.6,49.4 40.9,25.2 65.1,49.4 		"/>
		<g id="XMLID_21_">
			<path class="st3" d="M47.8,36.8l-7.3-7.4l-7.3,7.4V8.7l7.3-7.2l7.3,7.2V36.8z M40.5,25.1l4.4,4.5V9.9l-4.4-4.3l-4.4,4.3v19.7
				L40.5,25.1z"/>
		</g>
		<polygon class="st3" points="52.6,16.1 40.9,4.4 29,16.1 27,14.1 40.9,0.2 54.7,14.1 		"/>
		<path class="st3" d="M45.9,79.2h-9.8V60.6c0-2.7,2.2-4.9,4.9-4.9c2.7,0,4.9,2.3,4.9,4.9V79.2z M39,76.2h3.9V60.6c0-1.1-0.9-2-2-2
			c-1.1,0-2,0.9-2,2V76.2z"/>
		<rect x="12.6" y="76.2" class="st3" width="55.8" height="2.9"/>
		<path class="st3" d="M44.9,24.3h-8.8v-7.7c0-2.3,2.1-4.3,4.4-4.3c2.3,0,4.4,2,4.4,4.3V24.3z M39,21.4h2.9v-4.8
			c0-0.7-0.7-1.4-1.5-1.4S39,15.9,39,16.6V21.4z"/>
		<path class="st3" d="M40.9,44.1c-2.2,0-3.8-1.8-3.8-3.8c0-2.2,1.8-3.8,3.8-3.8s3.8,1.8,3.8,3.8C44.7,42.4,42.9,44.1,40.9,44.1z
			 M40.9,39.4c-0.5,0-0.9,0.4-0.9,0.9c0,0.5,0.4,0.9,0.9,0.9s0.9-0.4,0.9-0.9C41.8,39.8,41.4,39.4,40.9,39.4z"/>
	</g>
</g>
</svg>
