<?xml version="1.0" encoding="utf-8"?>
<!-- Generator: Adobe Illustrator 19.1.1, SVG Export Plug-In . SVG Version: 6.00 Build 0)  -->
<svg version="1.1" id="Layer_1" xmlns="http://www.w3.org/2000/svg" xmlns:xlink="http://www.w3.org/1999/xlink" x="0px" y="0px"
	 viewBox="0 0 80 80" style="enable-background:new 0 0 80 80;" xml:space="preserve">
<style type="text/css">
	.st0{fill:#709197;}
	.st1{fill:#F7931E;}
	.st2{fill:none;stroke:#709197;stroke-width:3;stroke-miterlimit:10;}
</style>
<g>
	<path class="st0" d="M17,2.8c-9,4.6,0.6,24.4,23.6,15.5C40.7,18.4,26.1-1.8,17,2.8z M19.6,7.7c5.5-3.4,12.8,8.6,12.8,8.6
		C27.6,18.2,14.1,11.2,19.6,7.7z"/>
	<path class="st0" d="M40.7,18.4c23,8.8,32.6-11,23.6-15.5C55.3-1.8,40.7,18.4,40.7,18.4z M48.8,16.3c0,0,7.3-12,12.8-8.6
		C67.2,11.2,53.8,18.2,48.8,16.3z"/>
	<polygon class="st1" points="62,27 13,27 13,35 16,35 16,77 59,77 59,35 62,35 	"/>
	<rect x="35" y="21" class="st0" width="12" height="51"/>
	<circle class="st0" cx="40.7" cy="18.4" r="4.3"/>
	<polygon class="st2" points="66.5,24.5 15.5,24.5 15.5,32.5 20.5,32.5 20.5,73.5 61.5,73.5 61.5,32.5 66.5,32.5 	"/>
	<rect x="21" y="33" class="st0" width="39" height="12"/>
</g>
</svg>
